<?xml version="1.0" encoding="UTF-8" standalone="no"?>
<svg
   xmlns:dc="http://purl.org/dc/elements/1.1/"
   xmlns:cc="http://creativecommons.org/ns#"
   xmlns:rdf="http://www.w3.org/1999/02/22-rdf-syntax-ns#"
   xmlns:svg="http://www.w3.org/2000/svg"
   xmlns="http://www.w3.org/2000/svg"
   xmlns:sodipodi="http://sodipodi.sourceforge.net/DTD/sodipodi-0.dtd"
   xmlns:inkscape="http://www.inkscape.org/namespaces/inkscape"
   inkscape:version="1.0 (4035a4f, 2020-05-01)"
   sodipodi:docname="document-open.svg"
   version="1.1"
   height="90.016"
   width="90"
   id="svg3443">
  <defs
     id="defs1075" />
  <sodipodi:namedview
     inkscape:current-layer="g3466"
     inkscape:window-maximized="0"
     inkscape:window-y="1012"
     inkscape:window-x="1550"
     inkscape:cy="57.817275"
     inkscape:cx="110.1847"
     inkscape:zoom="1.9795471"
     showgrid="true"
     id="namedview1073"
     inkscape:window-height="480"
     inkscape:window-width="820"
     inkscape:pageshadow="2"
     inkscape:pageopacity="0"
     guidetolerance="10"
     gridtolerance="10"
     objecttolerance="10"
     borderopacity="1"
     bordercolor="#666666"
     pagecolor="#ffffff">
    <inkscape:grid
       id="grid2275"
       type="xygrid" />
  </sodipodi:namedview>
  <metadata
     id="metadata3448">
    <rdf:RDF>
      <cc:Work
         rdf:about="">
        <dc:format>image/svg+xml</dc:format>
        <dc:type
           rdf:resource="http://purl.org/dc/dcmitype/StillImage" />
        <dc:title></dc:title>
      </cc:Work>
    </rdf:RDF>
  </metadata>
  <g
     transform="translate(0 -962.35)"
     id="layer1">
    <g
       transform="matrix(1.875 0 0 1.875 -990 -830.82)"
       id="g4136">
      <rect
         style="color:#000000;fill:none"
         height="48"
         width="48"
         y="544"
         x="528"
         transform="translate(0 412.36)"
         id="rect4134" />
    </g>
    <g
       transform="translate(-528 48)"
       id="g3466">
      <g
         transform="translate(-5,-42.009985)"
         id="g2913">
        <rect
           id="rect3470"
           x="594"
           y="962.35999"
           width="6"
           height="42"
           style="color:#000000;fill:#808080" />
        <rect
           id="rect3472"
           transform="rotate(90)"
           x="980.35999"
           y="-618"
           width="6"
           height="42"
           style="color:#000000;fill:#808080" />
      </g>
      <rect
         style="color:#000000;fill:none"
         height="90"
         width="90"
         y="914.36"
         x="528"
         id="rect3474" />
      <path
         style="fill:#808080;fill-opacity:1"
         d="m 562,926.36172 c -24.00639,0.0297 -27,0.73488 -27,17.98828 v 36 c 0,18 3,18 30,18 h 12 c 27,0 30,0 30,-18 v -9 h -9 v 6 c 0,12 0,12 -24,12 h -6 c -24,0 -24,0 -24,-12 v -30 c 0,-10.8639 0.19158,-11.88504 18,-11.98242 z"
         id="path3759" />
    </g>
  </g>
</svg>
